<svg width="70" height="33" viewBox="0 0 70 33" fill="none" xmlns="http://www.w3.org/2000/svg">
<path d="M0.9043 16.4372L25.5334 32.2012L68.2404 32.1367L68.3019 24.2612L46.2298 0.798829H0.9043V16.4372ZM25.4169 32.9968C25.3392 32.9968 25.2648 32.9742 25.2001 32.9324L0.286063 16.988C0.172773 16.9139 0.101562 16.7883 0.101562 16.653V0.399414C0.101562 0.17716 0.279589 0 0.502931 0H46.4046C46.5147 0 46.6215 0.0450952 46.6959 0.125622L68.9946 23.8296C69.0658 23.9037 69.1046 24.0035 69.1014 24.1066L69.0334 32.5362C69.0334 32.7552 68.8521 32.9324 68.632 32.9324L25.4104 33L25.4169 32.9968Z" fill="#000018"/>
<path d="M26.1784 29.2308H28.2953V28.6316H26.1784V29.2308ZM26.1784 27.7233H29.2081V30.1391H25.2656V26.2158H29.2081V27.1177H26.1784V27.7233Z" fill="#000018"/>
<path d="M33.5551 26.2158H34.4679V30.1391H30.5254V29.2308H33.5551V28.6316H30.5254V26.2158H31.4382V27.7233H33.5551V26.2158Z" fill="#000018"/>
<path d="M37.155 29.2308H38.9385V27.1177H37.6535L37.1518 27.8135V29.2308H37.155ZM39.8513 29.2146H40.3012V31.0249H39.3949V30.1391H36.7019V31.0249H35.7891V29.2146H36.2455V27.4334L37.1291 26.2158H39.8481V29.2146H39.8513Z" fill="#000018"/>
<path d="M44.6547 26.2158H45.5675V30.1391H41.625V29.2308H44.6547V28.6316H41.625V26.2158H42.5378V27.7233H44.6547V26.2158Z" fill="#000018"/>
<path d="M50.837 29.2308H51.2934V31.041H50.3806V30.1391H46.8945V26.2158H47.8073V29.2308H48.4094V26.2158H49.3222V29.2308H49.9242V26.2158H50.837V29.2308Z" fill="#000018"/>
<path d="M56.2745 27.1242H53.2448V27.7233H56.2745V28.6316H53.2448V29.2308H56.2745V30.1391H52.332V26.2158H56.2745V27.1242Z" fill="#000018"/>
<path d="M61.5401 26.2158V27.1177H58.5104V30.1391H57.5977V26.2158H61.5401Z" fill="#000018"/>
<path d="M63.7741 29.2308H65.891V27.1177H63.7741V29.2308ZM62.8613 26.2158H66.8038V30.1391H62.8613V26.2158Z" fill="#000018"/>
<path d="M17.286 3.0752V10.6544H13.8387L17.286 15.383H13.8581L10.4141 10.6544H7.78258V15.383H4.91797V3.0752H7.77934V7.80375H14.4246V3.0752H17.286Z" fill="#000018"/>
<path d="M21.9161 12.5355H28.5613V5.90653H21.9161V12.5355ZM19.0547 3.0752H31.4227V15.383H19.0547V3.0752Z" fill="#000018"/>
<path d="M37.4621 12.5339H43.0618V5.90487H39.032L37.4588 8.08554V12.5339H37.4621ZM45.9264 12.4823H47.3409V18.1611H44.4958V15.3813H36.0508V18.1611H33.1895V12.4823H34.6201V6.8873L37.3941 3.07031H45.9297V12.4791L45.9264 12.4823Z" fill="#000018"/>
</svg>
